# xmcd
#
# Track frame offsets:
#	182
#	16410
#	35645
#	54867
#	64212
#	73715
#	89937
#	108305
#	126292
#	140677
#	158667
#	170305
#	188667
#	208380
#
# Disc length: 2985 seconds
#
# Revision: 2
# Processed by: cddbd v1.5.2PL0 Copyright (c) Steve Scherf et al.
# Submitted via: EasyCDDAExtractor 10.0.5.1
#
DISCID=cf0ba70e
DTITLE=Ocarina - Love songs
DYEAR=1996
DGENRE=Ambient
TTITLE0=Cancion de Ocarina
TTITLE1=Aranjuez, Mon Amour
TTITLE2=Amor sin final
TTITLE3=Tema de Lara
TTITLE4=Blue Hawaii
TTITLE5=Fernando
TTITLE6=Ojos brillantes
TTITLE7=Puente sobre aguas turbulentas
TTITLE8=Un día volaré
TTITLE9=Memories
TTITLE10=El amor es azul
TTITLE11=Amorosa como las estrellas
TTITLE12=Solo llame para decirte que te quiero
TTITLE13=Ave del paraiso
EXTD=
EXTT0=
EXTT1=
EXTT2=
EXTT3=
EXTT4=
EXTT5=
EXTT6=
EXTT7=
EXTT8=
EXTT9=
EXTT10=
EXTT11=
EXTT12=
EXTT13=
PLAYORDER=
